<?xml version="1.0" encoding="utf-8" ?><svg xmlns="http://www.w3.org/2000/svg" xmlns:xlink="http://www.w3.org/1999/xlink" width="1024" height="1024" viewBox="0 0 1024 1024"><path fill="#172C42" d="M199.984 436.017C201.146 435.968 202.322 435.922 203.478 436.08C207.715 436.659 210.17 439.018 212.656 442.302C212.935 445.228 212.536 447.876 211.792 450.7C224.335 461.159 235.585 473.148 248.303 483.402C263.289 479.305 278.03 474.661 292.903 470.194C295.466 465.377 298.436 461.513 302.781 458.153C315.514 448.304 342.084 444.257 357.721 446.22C363.608 458.613 367.498 481.494 370.481 495.424C372.542 505.047 375.007 514.611 376.818 524.282C382.532 503.183 397.447 467.166 413.711 452.832C419.908 447.37 427.565 443.561 436.052 444.32C438.742 444.561 441.256 445.749 442.968 447.87C445.612 451.146 444.754 455.843 444.206 459.67C440.809 456.453 437.882 454.28 432.959 454.342C408.376 454.647 389.985 513.051 384.476 532.749C382.696 539.113 376.133 567.313 372.854 570.841C372.147 570.955 371.865 571.168 371.214 570.752C369.846 569.878 369.244 568.28 368.678 566.829C366.916 562.312 366.105 557.261 364.707 552.602C357.405 528.269 352.081 503.184 346.191 478.47C344.116 482.993 342.664 488.078 341.04 492.793C334.767 511.006 324.745 547.245 314.111 561.651C309.818 567.466 304.14 571.457 296.864 572.533C290.565 573.465 281.527 572.399 276.499 568.231C274.207 566.331 272.656 563.996 272.349 561.005C272.012 557.719 272.811 555.337 275.043 552.883C275.902 551.938 276.725 551.409 278.02 551.311C280.883 553.413 278.91 557.604 280.315 560.648C281.013 562.162 282.126 563.276 283.73 563.801C288.431 565.339 294.265 564.117 298.468 561.739C302.16 559.65 305.113 556.477 307.32 552.885C314.254 541.598 318.16 527.628 322.287 515.095C329.154 494.91 335.236 474.468 340.52 453.812C339.798 453.825 339.077 453.848 338.355 453.884C323.072 454.575 310.256 458.546 299.772 470.044C304.173 469.753 309.602 468.761 313.782 470.32C314.517 471.818 314.806 472.698 314.747 474.375C312.296 480.138 302.907 477.243 298.302 479.733C297.89 480.374 297.558 480.936 297.445 481.705C295.865 492.418 308.607 493.083 312.613 498.656C312.604 500.191 312.064 501.914 310.968 503.037C310.066 503.96 308.942 504.303 307.687 504.378C304.098 504.591 299.581 501.319 297.186 498.935C291.654 493.427 290.246 486.876 290.342 479.345C276.265 483.883 262.971 491.037 248.768 495.031C242.445 493.116 236.449 489.62 230.565 486.628C234.495 504.761 236.285 523.758 238.793 542.137L251.017 631.415C254.52 651.962 254.383 674.484 260.319 694.475C274.192 679.863 289.157 666.328 305.083 653.985C335.559 630.558 371.651 611.18 409.623 603.639C414.072 602.755 420.304 600.805 424.76 601.393L424.93 602.05C424.746 602.055 424.562 602.055 424.379 602.067C417.139 602.539 409.071 605.714 402.123 607.815C347.001 624.482 299.078 662.775 260.826 704.874C261.93 709.857 264.129 718.394 262.052 723.31C261.505 724.604 261.017 724.864 259.75 725.345C257.042 724.797 255.72 722.943 254.154 720.83C250.402 728.374 246.598 735.892 242.741 743.384C238.536 737.222 235.175 730.421 231.213 724.088C217.878 702.771 202.705 682 183.018 666.119L183.586 665.749C184.275 665.939 184.461 665.969 185.078 666.208C188.401 667.494 191.669 670.291 194.455 672.456C211.425 685.641 232.752 710.121 241.908 729.786C244.596 724.292 247.995 719.192 250.864 713.792C246.906 706.068 244.665 696.303 242.323 687.977L233.758 657.889C225.365 628.707 216.371 599.824 207.431 570.817C201.959 584.964 199.015 600.742 195.319 615.431C190.796 633.403 185.737 651.127 180.727 668.961C178.612 676.491 177.346 684.763 174.374 691.995C173.535 694.036 172.62 696.136 170.73 697.396C170.031 697.338 169.696 697.502 169.22 696.899C167.852 695.164 167.802 692.168 167.839 690.057C168.116 674.294 170.573 658.145 172.028 642.417C175.363 606.359 179.158 570.258 181.8 534.147C177.202 526.728 163.049 507.365 163.86 499.098C164.92 488.289 179.413 465.258 187.317 457.424C189.68 455.083 192.884 453.52 195.421 451.286L195.88 450.876C195.076 447.728 193.842 443.986 194.941 440.793C195.785 438.343 197.828 437.18 199.984 436.017ZM176.99 501.328C178.599 505.765 180.387 510.234 181.733 514.752C182.235 515.825 182.497 517.109 183.584 517.622C184.811 514.247 183.681 499.598 182.63 495.851C180.776 497.692 178.959 499.611 176.99 501.328Z"/><path fill="#172C42" d="M523.343 595.212C533.635 594.852 543.313 597.11 553.035 600.338C567.519 605.147 581.399 612.17 595.184 618.656C602.094 621.907 610.185 624.938 616.418 629.361C619.026 631.212 621.148 633.453 622.527 636.361C624.134 639.747 625.093 644.604 623.596 648.184C622.201 651.518 534.696 721.061 527.377 723.102C522.567 724.442 518.591 721.896 514.624 719.544C478.443 695.844 448.853 689.266 406.601 683.3C423.03 667.999 440.699 654.37 457.589 639.63L482.373 617.573C488.566 612.071 494.766 606.113 501.881 601.823C508.61 597.766 515.604 596.06 523.343 595.212ZM445.06 667.121C470.316 669.99 504.406 682.474 525.75 696.049L526.622 696.106C536.813 687.057 546.837 677.096 557.874 669.094C532.884 654.967 506.06 645.526 478.468 637.925C467.414 647.626 455.649 656.951 445.06 667.121ZM490.376 629.063C517.042 635.618 542.461 643.98 566.376 657.724C567.122 658.067 568.014 658.735 568.827 658.474C573.788 656.883 589.492 640.858 594.727 636.525C576.812 625.726 541.085 606.985 520.249 609.207C508.285 612.122 499.333 621.133 490.376 629.063Z"/><path fill="#172C42" d="M240.583 242.673C245.107 242.406 249.586 243.173 253.522 245.516C258.486 248.52 261.972 253.458 263.141 259.141C264.32 264.803 263.14 270.702 259.874 275.475C255.906 281.222 250.354 283.012 243.812 284.054C246.541 302.762 250.356 321.371 253.28 340.067C256.158 358.463 258.103 377.053 261.667 395.334C270.119 367.802 280.978 340.983 290.371 313.757C288.501 313.024 286.676 312.139 285.001 311.022C281.764 308.863 279.029 305.433 278.287 301.553C277.561 297.763 278.522 293.545 280.677 290.362C282.903 287.074 286.121 284.848 290.042 284.179C294.357 283.444 298.752 284.056 302.293 286.772C305.414 289.165 307.373 292.887 307.846 296.767C308.366 301.029 307.198 305.368 304.373 308.634C301.375 312.1 297.571 313.21 293.164 313.617L293.541 376.426C293.655 385.612 293.134 395.081 294.063 404.217C300.291 394.94 304.065 384.237 308.359 373.983C313.344 362.08 318.395 350.343 324.302 338.86C320.782 335.834 317.829 332.658 317.553 327.76C317.358 324.299 318.821 321.007 321.225 318.562C324.019 315.722 327.808 314.272 331.766 314.257C335.455 314.243 339.203 315.383 341.736 318.178C344.057 320.739 345.595 325.404 345.232 328.844C344.894 332.04 342.127 336.63 339.588 338.499C335.745 341.327 330.551 340.67 326.135 339.946C320.116 363.29 307.517 384.853 302.053 408.618C286.142 423.058 263.672 429.669 242.473 429.513C232.556 429.716 222.258 428.043 212.798 425.113C202.8 422.016 184.362 413.047 178.387 404.411C175.733 400.574 175.418 394.774 174.05 390.329C169.079 374.184 164.366 355.571 156.533 340.606C151.971 340.578 147.043 339.813 143.677 336.421C141.176 333.901 140.39 330.5 140.568 327.043C140.764 323.243 142.1 319.573 145.109 317.111C147.995 314.749 152.115 313.681 155.801 314.048C159.692 314.46 163.254 316.421 165.683 319.489C167.76 322.084 168.977 325.553 168.526 328.89C167.855 333.858 164.593 337.053 160.734 339.822C164.886 350.497 169.469 361.062 173.819 371.663C177.077 379.603 179.992 388.216 184.318 395.624C186.156 398.772 188.228 401.079 190.87 403.539C192.101 391.88 192.042 380.204 192.259 368.501C192.595 350.375 192.799 332.335 192.554 314.204C190.567 313.949 188.484 313.754 186.55 313.222C182.534 312.118 178.455 309.526 176.489 305.762C174.604 302.154 174.649 297.406 176.003 293.629C177.333 289.915 179.977 287.087 183.544 285.415C187.752 283.475 192.579 283.377 196.862 285.144C200.602 286.671 203.81 289.508 205.322 293.306C206.899 297.269 206.384 301.772 204.615 305.584C202.646 309.828 199.016 311.965 194.78 313.494C198.699 326.417 203.748 339.006 207.88 351.869C212.398 365.93 216.334 382.774 222.582 395.864C229.327 358.703 233.392 320.987 240.723 283.949C237.988 283.101 235.172 282.473 232.686 280.992C227.643 277.988 223.864 273.304 222.495 267.546C221.231 262.406 222.085 256.974 224.866 252.469C228.533 246.642 234.164 244.201 240.583 242.673Z"/><path fill="#172C42" d="M628.754 652.832C629.693 653.027 630.42 653.287 631.143 653.956C634.124 656.715 636.29 664.29 636.364 668.293C636.398 670.165 636.07 671.864 634.722 673.236C629.702 678.347 623.139 682.526 617.479 686.927L579.074 716.785C570.246 723.758 544.447 746.569 534.51 749.464C528.647 751.173 522.162 751.016 516.46 748.823C505.93 744.773 496.729 736.224 486.882 730.636C458.264 714.396 422.884 706.429 390.12 706.986C342.986 707.788 293.692 724.024 260.337 758.434C260.572 759.914 260.808 761.403 260.901 762.901C261.216 767.964 259.799 773.214 256.337 777.019C253.102 780.574 248.511 782.436 243.732 782.451C238.975 782.465 234.39 780.623 231.105 777.153C225.954 771.711 226.32 765.558 226.609 758.616C221.706 752.925 216.565 747.54 210.867 742.634C184.424 719.87 154.778 712.544 120.606 715.1C120.933 710.217 120.876 705.293 120.929 700.4C128.424 692.998 137.36 682.683 143.917 674.398C150.696 667.059 157.248 658.808 165.103 652.603C153.394 668.403 140.529 683.675 127.479 698.385C152.1 696.227 178.593 702.508 200.34 714.051C214.108 721.359 230.715 732.797 238.203 746.951C240.914 752.076 242.447 757.714 244.123 763.235C246.125 753.741 247.496 746.282 255.083 739.451C263.118 732.216 272.71 725.872 281.958 720.291C340.38 685.034 413.597 682.158 476.315 707.592C482.858 710.243 489.261 713.226 495.499 716.531C504.419 721.313 513.974 729.832 524.442 730.121C528.586 730.235 532.148 728.298 535.593 726.191C542.278 722.102 548.424 716.934 554.6 712.126C564.721 704.239 574.798 696.296 584.828 688.294C599.553 676.603 615.166 665.852 628.754 652.832Z"/><path fill="#172C42" d="M855.444 482.19C859.678 481.726 864.971 482.217 868.786 484.13C874.244 486.868 876.494 491.847 878.458 497.27C879.794 495.043 881.255 492.893 882.832 490.829C888.782 483.062 895.769 483.318 904.525 482.127C895.538 497.749 874.853 537.933 873.818 554.673C873.695 556.662 873.881 558.616 875.304 560.126C876.359 561.243 877.868 561.968 879.408 561.984C886.961 562.063 891.53 552.443 896.515 548.144C897.545 547.257 897.622 546.926 899.015 547.023C899.778 548.009 900.056 548.355 900.054 549.681C900.044 554.928 889.641 563.2 885.864 566.241C882.066 568.927 877.756 570.848 873.081 571.249C868.75 571.621 864.319 570.56 860.988 567.677C856.365 563.675 855.255 558.011 854.933 552.21C848.724 560.289 840.91 569.451 830.247 571.207C824.286 572.189 817.661 570.499 812.89 566.797C807.923 562.944 805.362 557.178 804.534 551.068C802.375 535.135 810.331 517.285 819.813 504.897C828.489 493.564 841.029 484.14 855.444 482.19ZM837.139 558.229C854.241 549.309 865.414 529.59 870.969 511.736C872.392 507.164 873.502 501.583 871.262 497.098C870.041 494.654 867.841 492.908 865.228 492.151C863.263 491.582 861.307 491.45 859.276 491.497C843.897 498.065 835.049 510.998 828.983 526.199C825.953 533.795 821.946 546.603 825.569 554.561C826.443 556.481 827.903 557.97 829.896 558.714C832.434 559.662 834.649 558.976 837.139 558.229Z"/><path fill="#172C42" d="M616.081 481.099C618.714 480.909 621.588 481.046 624.126 481.803C627.431 482.79 630.014 484.905 631.529 488.019C639.029 503.442 622.307 533.099 617.127 548.235C615.966 551.628 613.852 556.776 615.962 560.142C616.837 561.538 618.499 562.648 620.157 562.716C625.577 562.941 628.784 554.993 632.204 551.846C633.048 551.07 633.083 550.991 634.261 551.075C634.358 551.247 634.468 551.411 634.552 551.59C635.385 553.36 635.276 555.417 634.638 557.234C632.799 562.467 625.075 568.03 620.073 570.164C614.859 572.387 608.91 573.177 603.584 570.869C599.112 568.93 596.861 564.925 596.694 560.156C596.339 550.049 609.563 521.67 612.675 508.647C613.544 505.007 614.774 500.241 613.135 496.687C612.474 495.252 611.512 494.303 609.995 493.78C607.246 492.832 604.248 494.935 602.158 496.46C582.416 510.855 567.259 565.438 555.85 570.564C551.818 572.375 547.094 571.348 543.141 569.862C547.884 549.297 560.299 530.795 566.696 510.618C567.989 506.495 568.905 502.731 568.45 498.372C568.281 496.746 567.741 494.646 566.198 493.79C563.92 492.527 560.515 494.315 558.582 495.502C543.02 505.054 531.026 531.487 523.424 547.708C520.483 553.983 517.58 561.293 513.45 566.868C512.264 568.47 510.859 569.553 508.963 570.195C505.922 571.223 500.681 571.987 497.752 570.283C490.944 566.321 525.915 508.552 521.554 496.206C521.125 494.99 520.479 494.225 519.283 493.762C511.328 490.68 508.337 507.645 503.079 509.867L502.255 509.27C502.059 508.529 501.938 507.882 502.06 507.113C503.291 499.364 510.435 489.322 516.721 484.741C520.712 481.834 524.941 480.819 529.837 481.649C533.334 482.242 536.437 484.046 538.399 487.041C542.012 492.561 540.903 499.273 539.572 505.314C543.376 500.21 547.198 495.047 551.846 490.669C557.457 485.383 564.486 480.908 572.517 481.375C576.505 481.608 580.15 483.282 582.762 486.332C586.893 491.154 586.905 497.009 586.585 502.986C595.004 493.508 603.169 483.906 616.081 481.099Z"/><path fill="#172C42" d="M429.164 482.197C431.414 482.138 433.887 481.984 436.078 482.569C439.424 483.462 440.756 485.871 442.391 488.637C443.535 511.498 422.338 543.271 424.271 557.317C424.429 558.464 424.989 559.791 425.989 560.425C427.054 561.099 427.999 561.179 429.226 560.948C444.025 558.163 462.259 520.16 468.514 507.505C471.798 500.862 474.773 492.956 479.216 487.031C480.731 485.012 482.452 483.638 485.035 483.414C487.55 483.195 489.754 483.185 491.728 484.818C492.409 486.579 492.278 487.835 491.804 489.624C490.465 494.675 487.732 499.522 485.836 504.399C479.449 520.83 471.93 537.636 467.926 554.828C467.529 556.415 467.067 558.818 467.595 560.42C468.053 561.811 468.368 561.908 469.587 562.542C477.787 562.621 482.236 551.878 486.706 550.157L487.48 550.611C488.048 551.841 488.279 552.663 488.104 554.029C487.492 558.804 483.224 562.847 479.502 565.544C474.179 569.4 467.052 572.586 460.376 571.294C457.344 570.707 454.681 569.139 452.958 566.545C449.887 561.922 450.772 556.208 451.725 551.08C450.548 552.702 449.338 554.301 448.098 555.876C442.11 563.387 434.443 570.69 424.379 571.594C419.758 572.009 414.349 571.412 410.79 568.136C399.487 557.733 415.649 522.679 420.045 510.857C421.54 506.836 424.12 501.572 423.846 497.26C423.761 495.926 423.431 495.108 422.444 494.181C417.312 493.658 412.777 503.372 408.842 506.058L408.213 505.764C408.037 502.191 409.757 498.489 411.621 495.524C415.779 488.908 421.455 484.005 429.164 482.197Z"/><path fill="#172C42" d="M696.599 482.166C696.742 482.15 696.885 482.131 697.029 482.119C703.729 481.559 711.392 482.126 716.632 486.803C719.967 489.779 721.579 493.855 721.686 498.281C721.864 505.655 717.981 512.922 712.904 518.088C701.206 529.993 683.449 532.428 667.561 532.577C667.174 540.507 666.304 549.081 671.183 555.958C673.709 559.517 677.282 561.625 681.599 562.181C687.711 562.968 696.108 560.407 701.196 556.96C703.726 555.245 705.983 552.929 708.372 551C709.283 550.264 709.646 549.916 710.87 549.692L712.653 551.093C712.215 552.296 711.738 553.449 711.031 554.524C705.752 562.557 694.652 569.703 685.241 571.472C677.036 573.014 667.424 571.488 660.542 566.641C654.176 562.157 650.748 555.31 649.56 547.768C647.183 532.679 652.241 517.27 661.163 505.15C669.763 493.465 682.067 484.401 696.599 482.166ZM669.574 525.329C672.258 525.038 674.941 524.732 677.622 524.412C688.239 522.34 698.408 517.858 704.575 508.554C706.952 504.968 709.788 499.342 708.688 494.996C708.265 493.325 707.176 492.185 705.707 491.387C703.754 490.327 701.729 490.021 699.54 490.046C689.551 492.482 683.125 498.492 677.858 507.129C674.449 512.72 671.374 519.018 669.574 525.329Z"/><path fill="#172C42" d="M795.087 481.158C798.12 480.839 801.333 480.728 804.204 481.889C807.123 483.07 809.526 485.186 810.686 488.154C811.551 490.366 811.659 492.917 810.66 495.107C809.832 496.88 808.299 498.225 806.433 498.816C801.264 500.502 796.125 497.359 791.771 494.964C772.169 505.987 760.864 532.021 752.217 551.833C749.751 557.482 747.2 565.976 742.286 569.883C738.731 572.711 731.041 570.72 726.81 570.126C729.475 559.287 734.232 548.181 738.584 537.902C741.569 530.256 754.591 500.408 751.326 494.235C750.749 493.145 749.757 492.462 748.549 492.239C739.871 490.633 737.525 505.968 731.937 510.033L731.101 509.888C730.405 508.488 730.272 507.52 730.56 506.003C731.905 498.921 739.398 489.763 745.252 485.718C749.441 482.824 754.984 480.822 760.112 481.91C763.692 482.67 767.09 485.36 768.977 488.45C772.542 494.288 770.344 501.954 768.811 508.09C775.665 496.605 781.959 485.971 795.087 481.158Z"/></svg>