<svg width="252" height="193" viewBox="0 0 252 193" fill="none" xmlns="http://www.w3.org/2000/svg">
<path d="M110.291 33.3912C110.291 33.3912 108.567 30.6593 103.967 29.8373C99.3673 29.0153 97.459 31.4243 97.459 31.4243L102.243 35.8452L110.291 33.3912Z" fill="#3F51B5"/>
<path d="M47.8596 4.39C47.8596 4.39 49.5836 7.1219 54.1836 7.9439C58.7836 8.7659 60.6916 6.3569 60.6916 6.3569L55.9076 1.936L47.8596 4.39Z" fill="#3F51B5"/>
<path d="M79.0748 1.936C79.0748 1.936 80.7988 4.6679 85.3988 5.4899C89.9988 6.3119 91.9068 3.9029 91.9068 3.9029L87.1228 -0.518005L79.0748 1.936Z" fill="#3F51B5"/>
<path d="M38.8359 29.837C38.8359 29.837 36.6849 26.398 42.1089 25.576C47.5329 24.754 48.2049 28.327 48.2049 28.327L50.1129 32.748L38.8359 29.837Z" fill="#3F51B5"/>
<src/components/landing/Footer.tsx
<path d="M99.5059 25.991C99.5059 25.991 97.3549 22.552 102.778 21.73C108.202 20.908 108.874 24.481 108.874 24.481L110.782 28.902L99.5059 25.991Z" fill="#3F51B5"/>
<path d="M38.8359 29.8371C38.8359 29.8371 36.6849 26.3981 42.1089 25.5761C47.5329 24.7541 48.2049 28.3271 48.2049 28.3271L50.1129 32.7481L38.8359 29.8371Z" fill="#3F51B5"/>
<path d="M99.5059 25.9911C99.5059 25.9911 97.3549 22.5521 102.778 21.7301C108.202 20.9081 108.874 24.4811 108.874 24.4811L110.782 28.9021L99.5059 25.9911Z" fill="#3F51B5"/>
<path d="M71.8033 46.1268L36.2733 30.6588L71.8033 1.93581L114.237 30.6588L71.8033 46.1268Z" fill="#3F51B5"/>
<path d="M129.565 147.279L129.979 146.991L129.565 147.279Z" fill="white"/>
<path d="M0.832031 151.815L7.24803 148.969L24.422 138.883L25.66 138.25L26.505 137.962L36.273 133.31L73.447 115.118L110.291 133.31L120.473 138.25L132.023 144.112L135.533 145.836L138.832 147.56L142.13 149.284L150.342 153.539L155.438 156.385L160.534 159.231L163.62 161.071L163.62 161.071L166.706 162.911L171.388 165.469L176.484 168.315L178.544 169.485L179.37 169.907L181.016 170.99L184.314 172.903L185.552 173.653L189.264 175.78L193.39 178.118L194.216 178.54L195.454 179.173L200.55 181.933L201.788 182.683L204.654 184.22L208.78 186.558L211.232 187.851L215.358 190.189L216.596 190.822L223.012 189.366L230.25 187.642L236.252 186.144L241.934 184.851L249.586 183.011L251.646 182.683V161.071L248.348 162.911L241.934 166.484L237.074 169.197L230.664 172.77L224.25 175.78L220.124 178.118L217.009 179.995L210.818 176.422L206.308 173.864L202.61 171.737L201.374 171.104L200.136 170.354L191.338 165.68L186.376 162.911L183.492 161.071L178.13 158.061L173.844 155.366L170.546 153.312L167.12 151.185L162.59 148.216L158.06 145.247L154.608 143.003L151.986 141.279L146.068 137.548L140.15 133.816L135.533 131.092L129.565 127.361L123.597 123.63L118.813 120.62L116.365 119.164L73.447 94.0221L30.943 119.164L27.741 121.034L22.779 123.99L18.739 126.328L13.201 129.626L9.69103 131.753L5.56503 134.191L2.89103 135.811L1.24503 136.894L0.832031 137.182V151.815Z" fill="#3F51B5"/>
<path d="M129.565 147.279L129.979 146.991L129.565 147.279Z" fill="white"/>
<path d="M38.8359 110.052L73.4469 88.591L110.291 110.052L73.4469 129.93L38.8359 110.052Z" fill="white"/>
<path d="M110.291 66.822C101.493 66.822 93.5169 68.369 86.3629 71.463L86.3629 86.867C86.3629 86.867 87.5329 87.184 89.2099 87.501C92.2039 88.064 94.7839 88.455 94.7839 88.455V74.343C99.0929 73.116 103.546 72.483 108.066 72.483C114.257 72.483 120.034 73.645 125.404 75.983L125.404 88.869C125.404 88.869 130.494 87.576 135.532 85.956L135.532 70.552C128.378 68.081 119.704 66.822 110.291 66.822Z" fill="#3F51B5"/>
<path d="M141.308 67.236C131.222 67.236 123.245 69.363 117.327 73.618C111.409 77.873 108.45 83.355 108.45 90.064C108.45 96.631 111.409 102.042 117.327 106.297C123.245 110.552 131.222 112.679 141.308 112.679C151.394 112.679 159.371 110.552 165.289 106.297C171.207 102.042 174.166 96.631 174.166 90.064C174.166 83.355 171.207 77.873 165.289 73.618C159.371 69.363 151.394 67.236 141.308 67.236ZM141.308 108.024C134.6 108.024 129.504 106.404 125.994 103.164C122.484 99.924 120.729 95.457 120.729 89.776C120.729 84.095 122.484 79.628 125.994 76.388C129.504 73.148 134.6 71.528 141.308 71.528C148.016 71.528 153.112 73.148 156.622 76.388C160.132 79.628 161.887 84.095 161.887 89.776C161.887 95.457 160.132 99.924 156.622 103.164C153.112 106.404 148.016 108.024 141.308 108.024Z" fill="#3F51B5"/>
<path d="M176.888 67.746L176.888 112.169L189.262 112.169V101.987L194.214 107.271L200.548 112.169L208.778 112.169L200.548 103.578L209.192 67.746L196.291 67.746L191.339 88.041L189.262 92.551L189.262 67.746L176.888 67.746Z" fill="#3F51B5"/>
<path d="M211.232 90.064C211.232 83.497 214.191 78.086 220.109 73.831C226.027 69.576 233.933 67.449 243.829 67.449C249.495 67.449 253.554 67.959 256.002 68.979L254.356 73.204C252.186 72.454 249.673 72.079 246.817 72.079C239.059 72.079 233.141 74.046 229.062 77.98C224.983 81.914 222.944 87.27 222.944 94.045C222.944 100.82 224.983 106.176 229.062 110.11C233.141 114.044 239.059 116.011 246.817 116.011C249.673 116.011 252.186 115.636 254.356 114.886L256.002 119.111C253.554 120.131 249.495 120.641 243.829 120.641C233.933 120.641 226.027 118.514 220.109 114.259C214.191 110.004 211.232 104.593 211.232 98.026V90.064Z" fill="#3F51B5"/>
<path d="M47.8598 56.762L47.8598 120.206L36.2738 120.206L36.2738 56.762L47.8598 56.762Z" fill="#3F51B5"/>
<path d="M71.8033 58.077L71.8033 121.521L60.2173 121.521L60.2173 58.077L71.8033 58.077Z" fill="#3F51B5"/>
<path d="M38.8359 55.447C38.8359 53.607 38.3979 52.055 37.5219 50.791C36.6459 49.527 35.4209 48.551 33.8469 47.863C32.2729 47.175 30.4109 46.831 28.2609 46.831C24.3389 46.831 21.0809 47.771 18.4869 49.651C15.8929 51.531 14.5959 54.161 14.5959 57.541C14.5959 60.357 15.4059 62.727 17.0259 64.659C18.6459 66.591 20.7819 67.993 23.4339 68.865L33.8469 72.245C37.0489 73.265 39.4299 74.573 40.9819 76.169C42.5339 77.765 43.3099 79.871 43.3099 82.487C43.3099 85.935 42.0849 88.751 39.6369 90.935C37.1889 93.119 33.9189 94.211 29.8269 94.211C25.1709 94.211 21.3369 93.071 18.3289 90.791C15.3209 88.511 13.8169 85.311 13.8169 81.191L1.24492 81.191C1.24492 86.631 2.96892 91.249 6.41692 95.045C9.86492 98.841 14.5959 101.443 20.6079 102.845L20.6079 118.067L31.3579 118.067L31.3579 103.259C35.4209 102.571 38.7299 101.061 41.2819 98.729C43.8339 96.397 45.1099 93.315 45.1099 89.481C45.1099 86.445 44.2579 83.899 42.5659 81.843C40.8739 79.787 38.5099 78.201 35.4739 77.083L25.2689 73.703C22.6289 72.831 20.7429 71.789 19.6109 70.577C18.4789 69.365 17.9129 67.865 17.9129 66.077C17.9129 63.317 19.2099 61.121 21.8049 59.489C24.3989 57.857 27.5649 57.041 31.2979 57.041C34.7459 57.041 37.4929 57.729 39.5379 59.105C41.5829 60.481 42.5939 62.361 42.5939 64.741L42.5939 64.741L55.1659 64.741C55.1659 60.521 53.4419 57.141 50.0039 54.601C46.5659 52.061 42.1799 50.791 36.8459 50.791C40.2359 50.791 42.6659 51.581 44.1359 53.161C45.6059 54.741 46.3409 56.885 46.3409 59.593L38.8359 55.447Z" fill="#3F51B5"/>
</svg>
